# xmcd CD database file
#
# Track frame offsets:
#	183
#	14063
#	30050
#	48370
#	64578
#	83148
#	98010
#	115683
#	130745
#	148508
#	165255
#	180885
#	198980
#	216240
#	233320
#	252775
#	268390
#	284875
#
# Disc length: 3896 seconds
#
# Revision: 3
# Processed by: cddbd v1.4PL0 Copyright (c) Steve Scherf et al.
# Submitted via: Gronk 1.4
#
DISCID=ec0f3612
DTITLE=SJEF DIEDEREN - DE TROUBADOUR VAN LIMBURG
DYEAR=1900
DGENRE=country
TTITLE0=Loat De Zörg Veur Mörge
TTITLE1=Noee Pak 'm Toch
TTITLE2='n Huilands Leedje
TTITLE3=Neet Lang Helle, Sjefke Belle
TTITLE4=Bieë Oma
TTITLE5=Afcentgirl
TTITLE6=De Werk-loze
TTITLE7=Geneet Van 't Laeve
TTITLE8=Die Melodie
TTITLE9='t Is Neet Alles Goud Wat Blink
TTITLE10='t Sjloapleedje
TTITLE11=De Deur Van 't Auwersjhoeës
TTITLE12=Wit Sjöäpke, Zjwart Sjöäpke
TTITLE13=De Aovendzon
TTITLE14='t Leëste Kindj
TTITLE15=ê Sjtökske Limburg
TTITLE16=De Sjtool Van Opa
TTITLE17=Bedank
EXTD=
EXTT0=
EXTT1=
EXTT2=
EXTT3=
EXTT4=
EXTT5=
EXTT6=
EXTT7=
EXTT8=
EXTT9=
EXTT10=
EXTT11=
EXTT12=
EXTT13=
EXTT14=
EXTT15=
EXTT16=
EXTT17=
PLAYORDER=
